<svg width="54" height="18" viewBox="0 0 54 18" fill="none" xmlns="http://www.w3.org/2000/svg">
<path d="M25.3073 4.256C25.3073 4.43178 25.2634 4.62263 25.1755 4.82854C25.0901 5.03195 24.9545 5.23284 24.7687 5.43122C24.5829 5.62709 24.3456 5.78655 24.0568 5.9096C23.768 6.03265 23.4315 6.09417 23.0473 6.09417C22.756 6.09417 22.4911 6.06655 22.2525 6.0113C22.014 5.95605 21.7967 5.87068 21.6009 5.75516C21.4075 5.63714 21.2292 5.4827 21.066 5.29185C20.9203 5.11858 20.796 4.92522 20.6931 4.71177C20.5901 4.49581 20.5123 4.26604 20.4595 4.02246C20.4093 3.77888 20.3842 3.52023 20.3842 3.24651C20.3842 2.80204 20.4482 2.40402 20.5763 2.05246C20.7069 1.70089 20.8927 1.40081 21.1338 1.1522C21.3749 0.901088 21.6574 0.71024 21.9813 0.57966C22.3052 0.449079 22.6505 0.383789 23.0172 0.383789C23.4641 0.383789 23.8622 0.472935 24.2112 0.651228C24.5603 0.82952 24.8277 1.0505 25.0135 1.31417C25.1994 1.57533 25.2923 1.82268 25.2923 2.05622C25.2923 2.18429 25.2471 2.29729 25.1567 2.39523C25.0663 2.49316 24.957 2.54213 24.829 2.54213C24.6858 2.54213 24.5778 2.50823 24.505 2.44043C24.4347 2.37263 24.3556 2.25586 24.2677 2.09012C24.1221 1.81641 23.9501 1.61175 23.7517 1.47614C23.5558 1.34054 23.3135 1.27274 23.0247 1.27274C22.5652 1.27274 22.1985 1.44727 21.9248 1.79632C21.6536 2.14537 21.518 2.64132 21.518 3.28418C21.518 3.71359 21.5783 4.07143 21.6988 4.3577C21.8193 4.64146 21.9901 4.85366 22.2111 4.99428C22.4321 5.13491 22.6907 5.20522 22.987 5.20522C23.3085 5.20522 23.5797 5.12612 23.8006 4.96791C24.0241 4.8072 24.1924 4.57241 24.3054 4.26353C24.3531 4.11789 24.4121 3.99986 24.4824 3.90946C24.5527 3.81655 24.6657 3.77009 24.8214 3.77009C24.9545 3.77009 25.0688 3.81655 25.1642 3.90946C25.2596 4.00237 25.3073 4.11789 25.3073 4.256ZM27.4092 1.0618V5.08092H29.6768C29.8576 5.08092 29.9957 5.12486 30.0911 5.21275C30.189 5.30064 30.238 5.41113 30.238 5.54422C30.238 5.67983 30.1903 5.79032 30.0949 5.8757C29.9994 5.95857 29.8601 6 29.6768 6H26.976C26.7324 6 26.5566 5.94601 26.4487 5.83803C26.3432 5.73005 26.2905 5.55552 26.2905 5.31445V1.0618C26.2905 0.835798 26.3407 0.666295 26.4411 0.553292C26.5441 0.44029 26.6784 0.383789 26.8442 0.383789C27.0124 0.383789 27.148 0.44029 27.251 0.553292C27.3564 0.663783 27.4092 0.833287 27.4092 1.0618ZM31.0215 5.41239V1.0618C31.0215 0.835798 31.073 0.666295 31.1759 0.553292C31.2789 0.44029 31.412 0.383789 31.5752 0.383789C31.7434 0.383789 31.879 0.44029 31.982 0.553292C32.0875 0.663783 32.1402 0.833287 32.1402 1.0618V5.41239C32.1402 5.6409 32.0875 5.81166 31.982 5.92467C31.879 6.03767 31.7434 6.09417 31.5752 6.09417C31.4145 6.09417 31.2814 6.03767 31.1759 5.92467C31.073 5.80915 31.0215 5.63839 31.0215 5.41239ZM37.0332 1.34054H34.5133V2.69657H36.8336C37.0043 2.69657 37.1311 2.73549 37.214 2.81334C37.2994 2.88867 37.3421 2.98912 37.3421 3.11468C37.3421 3.24023 37.3006 3.34319 37.2178 3.42355C37.1349 3.5014 37.0068 3.54032 36.8336 3.54032H34.5133V5.11105H37.1198C37.2956 5.11105 37.4275 5.15248 37.5153 5.23535C37.6057 5.31571 37.6509 5.42369 37.6509 5.55929C37.6509 5.68987 37.6057 5.7966 37.5153 5.87946C37.4275 5.95982 37.2956 6 37.1198 6H34.0801C33.8365 6 33.6607 5.94601 33.5527 5.83803C33.4473 5.73005 33.3945 5.55552 33.3945 5.31445V1.1635C33.3945 1.00279 33.4184 0.87221 33.4661 0.771763C33.5138 0.668806 33.5879 0.594726 33.6883 0.549526C33.7913 0.501814 33.9219 0.477957 34.0801 0.477957H37.0332C37.2115 0.477957 37.3433 0.518136 37.4287 0.598493C37.5166 0.676339 37.5605 0.779297 37.5605 0.907366C37.5605 1.03795 37.5166 1.14342 37.4287 1.22377C37.3433 1.30162 37.2115 1.34054 37.0332 1.34054ZM39.9976 1.05427L42.1484 4.30873V1.02413C42.1484 0.810686 42.1936 0.651228 42.284 0.545759C42.377 0.437779 42.5013 0.383789 42.6569 0.383789C42.8177 0.383789 42.9445 0.437779 43.0374 0.545759C43.1303 0.651228 43.1768 0.810686 43.1768 1.02413V5.36719C43.1768 5.85184 42.9759 6.09417 42.5741 6.09417C42.4736 6.09417 42.3832 6.0791 42.3029 6.04897C42.2225 6.02134 42.1472 5.97614 42.0769 5.91336C42.0066 5.85059 41.9413 5.77776 41.881 5.69489C41.8207 5.60951 41.7605 5.52288 41.7002 5.43499L39.6021 2.21819V5.45382C39.6021 5.66476 39.5532 5.82422 39.4552 5.9322C39.3573 6.04018 39.2317 6.09417 39.0785 6.09417C38.9203 6.09417 38.7935 6.04018 38.6981 5.9322C38.6027 5.82171 38.555 5.66225 38.555 5.45382V1.19364C38.555 1.01283 38.5751 0.870954 38.6152 0.767997C38.6629 0.654994 38.742 0.563337 38.8525 0.493024C38.963 0.420201 39.0823 0.383789 39.2104 0.383789C39.3108 0.383789 39.3962 0.400112 39.4665 0.432757C39.5393 0.465402 39.6021 0.509347 39.6549 0.564593C39.7101 0.619838 39.7653 0.691406 39.8206 0.779297C39.8783 0.867187 39.9374 0.958845 39.9976 1.05427ZM47.9869 1.40081H46.7665V5.41239C46.7665 5.64342 46.715 5.81543 46.612 5.92843C46.5091 6.03892 46.376 6.09417 46.2128 6.09417C46.047 6.09417 45.9114 6.03767 45.8059 5.92467C45.703 5.81166 45.6515 5.6409 45.6515 5.41239V1.40081H44.4311C44.2402 1.40081 44.0984 1.35937 44.0054 1.27651C43.9125 1.19113 43.8661 1.07938 43.8661 0.941267C43.8661 0.79813 43.9138 0.685128 44.0092 0.60226C44.1071 0.519392 44.2478 0.477957 44.4311 0.477957H47.9869C48.1802 0.477957 48.3234 0.520647 48.4163 0.606027C48.5117 0.691406 48.5594 0.803153 48.5594 0.941267C48.5594 1.07938 48.5117 1.19113 48.4163 1.27651C48.3209 1.35937 48.1777 1.40081 47.9869 1.40081ZM52.861 1.34054H50.3411V2.69657H52.6614C52.8322 2.69657 52.959 2.73549 53.0419 2.81334C53.1272 2.88867 53.1699 2.98912 53.1699 3.11468C53.1699 3.24023 53.1285 3.34319 53.0456 3.42355C52.9628 3.5014 52.8347 3.54032 52.6614 3.54032H50.3411V5.11105H52.9477C53.1235 5.11105 53.2553 5.15248 53.3432 5.23535C53.4336 5.31571 53.4788 5.42369 53.4788 5.55929C53.4788 5.68987 53.4336 5.7966 53.3432 5.87946C53.2553 5.95982 53.1235 6 52.9477 6H49.9079C49.6643 6 49.4886 5.94601 49.3806 5.83803C49.2751 5.73005 49.2224 5.55552 49.2224 5.31445V1.1635C49.2224 1.00279 49.2462 0.87221 49.2939 0.771763C49.3417 0.668806 49.4157 0.594726 49.5162 0.549526C49.6191 0.501814 49.7497 0.477957 49.9079 0.477957H52.861C53.0393 0.477957 53.1712 0.518136 53.2566 0.598493C53.3444 0.676339 53.3884 0.779297 53.3884 0.907366C53.3884 1.03795 53.3444 1.14342 53.2566 1.22377C53.1712 1.30162 53.0393 1.34054 52.861 1.34054Z" fill="#A833B9"/>
<path d="M26.0153 9.81761H22.6186V11.995H25.4579C25.7211 11.995 25.9166 12.055 26.0444 12.175C26.176 12.2911 26.2418 12.4479 26.2418 12.6453C26.2418 12.8427 26.176 12.9995 26.0444 13.1156C25.9127 13.2317 25.7173 13.2898 25.4579 13.2898H22.6186V16.0942C22.6186 16.4503 22.5374 16.7155 22.3748 16.8897C22.2161 17.06 22.0109 17.1452 21.7593 17.1452C21.5038 17.1452 21.2948 17.0581 21.1322 16.8839C20.9735 16.7097 20.8942 16.4465 20.8942 16.0942V9.54472C20.8942 9.29698 20.9309 9.0957 21.0045 8.94086C21.078 8.78216 21.1922 8.66797 21.3471 8.59829C21.5058 8.52474 21.7071 8.48797 21.9509 8.48797H26.0153C26.2902 8.48797 26.4934 8.5499 26.625 8.67377C26.7605 8.79377 26.8282 8.95247 26.8282 9.14989C26.8282 9.35117 26.7605 9.51375 26.625 9.63762C26.4934 9.75761 26.2902 9.81761 26.0153 9.81761ZM33.7261 9.81761H29.8417V11.9079H33.4184C33.6816 11.9079 33.877 11.9679 34.0048 12.0879C34.1364 12.204 34.2022 12.3588 34.2022 12.5524C34.2022 12.7459 34.1383 12.9046 34.0106 13.0285C33.8829 13.1485 33.6854 13.2085 33.4184 13.2085H29.8417V15.6297H33.8596C34.1306 15.6297 34.3338 15.6936 34.4693 15.8213C34.6086 15.9452 34.6783 16.1116 34.6783 16.3207C34.6783 16.5219 34.6086 16.6865 34.4693 16.8142C34.3338 16.9381 34.1306 17 33.8596 17H29.1739C28.7985 17 28.5275 16.9168 28.3611 16.7503C28.1985 16.5839 28.1172 16.3149 28.1172 15.9433V9.54472C28.1172 9.29698 28.154 9.0957 28.2275 8.94086C28.3011 8.78216 28.4153 8.66797 28.5701 8.59829C28.7288 8.52474 28.9301 8.48797 29.1739 8.48797H33.7261C34.0009 8.48797 34.2041 8.5499 34.3357 8.67377C34.4712 8.79377 34.539 8.95247 34.539 9.14989C34.539 9.35117 34.4712 9.51375 34.3357 9.63762C34.2041 9.75761 34.0009 9.81761 33.7261 9.81761ZM37.7382 9.38795V15.5833H41.2336C41.5123 15.5833 41.7252 15.651 41.8723 15.7865C42.0233 15.922 42.0988 16.0923 42.0988 16.2974C42.0988 16.5065 42.0252 16.6768 41.8781 16.8084C41.731 16.9361 41.5162 17 41.2336 17H37.0705C36.695 17 36.4241 16.9168 36.2576 16.7503C36.0951 16.5839 36.0138 16.3149 36.0138 15.9433V9.38795C36.0138 9.03957 36.0912 8.77828 36.246 8.6041C36.4047 8.42991 36.6118 8.34281 36.8673 8.34281C37.1266 8.34281 37.3357 8.42991 37.4944 8.6041C37.6569 8.77441 37.7382 9.0357 37.7382 9.38795ZM43.3065 16.0942V9.38795C43.3065 9.03957 43.3858 8.77828 43.5445 8.6041C43.7032 8.42991 43.9084 8.34281 44.16 8.34281C44.4193 8.34281 44.6284 8.42991 44.7871 8.6041C44.9497 8.77441 45.0309 9.0357 45.0309 9.38795V16.0942C45.0309 16.4465 44.9497 16.7097 44.7871 16.8839C44.6284 17.0581 44.4193 17.1452 44.16 17.1452C43.9123 17.1452 43.7071 17.0581 43.5445 16.8839C43.3858 16.7058 43.3065 16.4426 43.3065 16.0942ZM46.738 15.0142L51.1101 9.78277H47.3535C47.0902 9.78277 46.8909 9.72471 46.7554 9.60859C46.6238 9.49246 46.558 9.33956 46.558 9.14989C46.558 8.95247 46.6238 8.79377 46.7554 8.67377C46.8909 8.5499 47.0902 8.48797 47.3535 8.48797H52.1959C52.823 8.48797 53.1365 8.78022 53.1365 9.36472C53.1365 9.64342 53.0843 9.866 52.9798 10.0324C52.8752 10.1989 52.6643 10.4679 52.3469 10.8395L48.2592 15.7052H52.7649C53.032 15.7052 53.2314 15.7613 53.363 15.8736C53.4946 15.982 53.5604 16.1349 53.5604 16.3323C53.5604 16.5374 53.4946 16.7 53.363 16.82C53.2314 16.94 53.032 17 52.7649 17H47.2373C46.8619 17 46.5793 16.9168 46.3896 16.7503C46.1999 16.58 46.1051 16.3536 46.1051 16.071C46.1051 15.9742 46.1206 15.8852 46.1516 15.8039C46.1825 15.7226 46.2232 15.6471 46.2735 15.5775C46.3277 15.5039 46.4012 15.4129 46.4941 15.3046C46.587 15.1923 46.6683 15.0955 46.738 15.0142Z" fill="#A833B9"/>
<rect width="18" height="17.8854" rx="1.71975" fill="#A833B9"/>
<ellipse cx="4.81526" cy="5.1019" rx="1.03185" ry="0.974522" fill="white"/>
<ellipse cx="7.91081" cy="4.98728" rx="1.03185" ry="0.974522" fill="white"/>
<line x1="4.53411" y1="9.50251" x2="8.58532" y2="12.778" stroke="white" stroke-width="1.71975" stroke-linecap="round"/>
<line x1="8.65641" y1="12.7725" x2="14.4923" y2="6.36266" stroke="white" stroke-width="1.71975" stroke-linecap="round"/>
</svg>
