<svg width="540" height="359" viewBox="0 0 540 359" fill="none" xmlns="http://www.w3.org/2000/svg">
<g clip-path="url(#clip0_2_849)">
<path d="M193.424 206.239C211.904 173.731 247.154 148.771 284.47 151.175C256.945 181.107 240.894 219.811 239.158 260.438C238.545 276.108 239.496 293.602 229.091 305.336C222.617 312.637 212.721 316.173 202.992 316.915C193.262 317.656 183.534 315.898 173.934 314.148L171.605 314.863C170.719 277.48 174.944 238.747 193.424 206.239Z" fill="#F0F0F0"/>
<path d="M284.525 151.958C256.931 165.242 233.402 187.427 218.958 214.484C215.835 220.334 213.176 226.54 212.016 233.101C210.856 239.666 211.667 245.915 213.909 252.15C215.959 257.849 218.715 263.442 219.344 269.541C220.006 275.97 217.641 281.981 213.383 286.751C208.174 292.588 201.178 296.205 194.213 299.504C186.481 303.167 178.391 306.85 172.914 313.687C172.25 314.515 171.004 313.437 171.666 312.61C181.195 300.715 197.506 298.479 208.817 288.897C214.095 284.426 218.058 278.337 217.808 271.202C217.589 264.964 214.751 259.194 212.626 253.44C210.394 247.399 209.281 241.325 210.081 234.885C210.9 228.296 213.322 221.973 216.281 216.069C222.956 202.755 232.09 190.531 242.553 179.964C254.579 167.818 268.594 157.819 283.991 150.398C284.945 149.94 285.472 151.502 284.525 151.958Z" fill="white"/>
<path d="M223.189 205.442C218.958 202.349 215.965 197.853 214.744 192.756C213.523 187.66 214.153 182.296 216.522 177.621C217.004 176.677 218.494 177.382 218.011 178.328C215.797 182.677 215.211 187.674 216.358 192.417C217.505 197.16 220.309 201.337 224.265 204.194C225.124 204.816 224.043 206.06 223.189 205.442Z" fill="white"/>
<path d="M212.489 249.396C223.089 247.847 232.716 242.36 239.45 234.029C240.116 233.203 241.363 234.281 240.698 235.106C233.674 243.762 223.644 249.452 212.61 251.04C211.558 251.191 211.443 249.546 212.489 249.396Z" fill="white"/>
<path d="M255.393 169.846C256.78 171.384 258.528 172.553 260.479 173.249C262.43 173.944 264.523 174.144 266.571 173.831C267.62 173.667 267.734 175.312 266.691 175.475C264.428 175.81 262.116 175.586 259.959 174.823C257.802 174.059 255.864 172.779 254.316 171.094C254.157 170.947 254.06 170.745 254.044 170.529C254.028 170.313 254.095 170.1 254.231 169.931C254.374 169.767 254.577 169.666 254.794 169.65C255.012 169.634 255.227 169.704 255.393 169.846Z" fill="white"/>
<path d="M358.716 253.725C358.064 253.846 357.411 253.967 356.753 254.101C347.991 255.772 339.379 258.153 331.003 261.219C330.351 261.446 329.695 261.685 329.051 261.93C308.949 269.532 290.433 280.8 274.444 295.162C268.087 300.882 262.174 307.078 256.757 313.696C249.277 322.836 241.893 333.34 232.118 339.3C231.105 339.933 230.054 340.503 228.97 341.006L172.658 317.648C172.557 317.531 172.449 317.426 172.347 317.308L170.056 316.479C170.312 316.118 170.585 315.749 170.84 315.388C170.988 315.178 171.147 314.974 171.295 314.764C171.397 314.625 171.5 314.487 171.584 314.357C171.618 314.311 171.653 314.265 171.681 314.231C171.765 314.101 171.858 313.988 171.937 313.871C173.456 311.805 174.992 309.747 176.546 307.696C176.551 307.683 176.551 307.683 176.569 307.675C188.445 292.077 201.728 277.333 216.827 265.074C217.281 264.705 217.74 264.323 218.22 263.965C225.057 258.477 232.33 253.557 239.968 249.254C244.158 246.911 248.464 244.782 252.869 242.875C264.261 237.968 276.354 234.884 288.704 233.736C313.324 231.449 338.402 237.063 357.285 252.53C357.768 252.926 358.239 253.317 358.716 253.725Z" fill="#F0F0F0"/>
<path d="M358.293 254.388C328.263 248.38 296.119 251.928 268.296 264.836C262.281 267.626 256.421 270.98 251.545 275.521C246.666 280.064 243.551 285.541 241.588 291.869C239.792 297.654 238.626 303.78 235.456 309.028C232.115 314.56 226.607 317.935 220.335 319.18C212.662 320.704 204.898 319.38 197.351 317.821C188.971 316.09 180.295 314.16 171.806 316.321C170.777 316.583 170.431 314.972 171.458 314.71C186.228 310.95 200.598 318.985 215.398 318.144C222.304 317.752 229.134 315.276 233.229 309.429C236.811 304.316 238.019 298.001 239.786 292.127C241.641 285.96 244.41 280.44 248.926 275.78C253.547 271.012 259.287 267.422 265.205 264.49C278.55 257.877 293.203 253.616 307.919 251.479C324.834 249.022 342.044 249.475 358.806 252.821C359.843 253.029 359.324 254.594 358.293 254.388Z" fill="white"/>
<path d="M277.118 260.163C275.603 255.146 275.92 249.754 278.013 244.95C280.106 240.146 283.839 236.242 288.545 233.936C289.499 233.472 290.264 234.933 289.309 235.397C284.923 237.536 281.446 241.173 279.506 245.651C277.566 250.128 277.29 255.152 278.729 259.815C279.041 260.829 277.428 261.171 277.118 260.163Z" fill="white"/>
<path d="M242.111 288.816C251.508 293.961 262.498 295.376 272.891 292.778C273.92 292.52 274.267 294.131 273.238 294.389C262.418 297.072 250.984 295.577 241.218 290.201C240.288 289.688 241.186 288.306 242.111 288.816Z" fill="white"/>
<path d="M324.263 251.131C324.445 253.194 325.136 255.18 326.275 256.91C327.414 258.64 328.965 260.06 330.788 261.042C331.725 261.543 330.825 262.925 329.895 262.427C327.886 261.332 326.175 259.762 324.912 257.853C323.649 255.945 322.874 253.756 322.652 251.479C322.613 251.266 322.657 251.046 322.774 250.864C322.891 250.682 323.073 250.552 323.283 250.499C323.497 250.454 323.72 250.495 323.903 250.614C324.086 250.732 324.216 250.918 324.263 251.131Z" fill="white"/>
<path d="M251.444 292.261C243.558 254.129 233.7 241.415 233.7 241.415L229.934 238.495L225.405 234.977L225.427 234.525L224.353 234.16L224.1 233.964L223.687 233.646L223.62 233.718L223.48 233.863L202.986 226.897L176.986 218.065L164.946 202.416C162.985 199.867 160.461 197.807 157.571 196.398C154.68 194.988 151.503 194.267 148.287 194.29L109.836 194.575C104.637 194.613 99.6408 196.595 95.829 200.131L70.5558 223.574L31.1753 242.382L31.1088 242.315L30.6953 242.611L24.6107 245.52L24.8617 246.827L21.0957 249.544C21.0957 249.544 11.2377 261.374 3.35124 296.856C1.34502 305.884 0.35748 325.25 0.00103221 349.115C-0.0168721 350.322 0.205402 351.521 0.654925 352.642C1.10445 353.762 1.77225 354.782 2.61951 355.643C3.46677 356.503 4.47658 357.186 5.59022 357.652C6.70386 358.119 7.89912 358.359 9.1065 358.359H219.446L245.699 358.359C246.905 358.359 248.1 358.119 249.212 357.653C250.325 357.187 251.335 356.505 252.182 355.645C253.029 354.786 253.697 353.767 254.147 352.648C254.597 351.529 254.821 350.331 254.804 349.125C254.456 323.156 253.469 302.052 251.444 292.261Z" fill="#3F3D56"/>
<path d="M278.432 33.2544C270.248 33.2544 262.4 36.5053 256.614 42.2918C250.827 48.0784 247.576 55.9266 247.576 64.11C247.576 72.2935 250.827 80.1417 256.614 85.9283C262.4 91.7148 270.248 94.9657 278.432 94.9657H508.38C516.563 94.9657 524.411 91.7148 530.198 85.9283C535.985 80.1417 539.235 72.2935 539.235 64.11C539.235 55.9266 535.985 48.0784 530.198 42.2918C524.411 36.5053 516.563 33.2544 508.38 33.2544H278.432Z" fill="#E5E5E5"/>
<path d="M278.432 39.499C271.905 39.499 265.645 42.0919 261.029 46.7074C256.414 51.3229 253.821 57.5828 253.821 64.1101C253.821 70.6373 256.414 76.8972 261.029 81.5127C265.645 86.1282 271.905 88.7211 278.432 88.7211H508.38C514.907 88.7211 521.167 86.1282 525.782 81.5127C530.398 76.8972 532.991 70.6373 532.991 64.1101C532.991 57.5828 530.398 51.3229 525.782 46.7074C521.167 42.0919 514.907 39.499 508.38 39.499H278.432Z" fill="white"/>
<path d="M135.1 179.845C162.921 179.845 185.475 157.292 185.475 129.471C185.475 101.65 162.921 79.0962 135.1 79.0962C107.279 79.0962 84.7258 101.65 84.7258 129.471C84.7258 157.292 107.279 179.845 135.1 179.845Z" fill="#9E616A"/>
<path d="M122.213 177.379C121.998 176.905 121.784 176.429 121.57 175.952C121.652 175.955 121.734 175.967 121.816 175.969L122.213 177.379Z" fill="#2F2E41"/>
<path d="M83.3249 81.387C85.8727 79.3545 88.8505 77.4845 92.108 77.5896C95.3653 77.6946 98.6686 80.6366 97.9937 83.8251C103.977 73.2313 113.5 65.0834 124.893 60.8116C136.285 56.5399 148.818 56.4173 160.291 60.4653C168.387 63.3216 176.327 69.036 178.186 77.4173C178.664 79.5688 178.766 81.9279 180.11 83.675C181.803 85.8777 185.044 86.376 187.712 85.6011C187.739 85.5934 187.766 85.5855 187.792 85.5776C188.243 85.4237 188.73 85.4085 189.189 85.5342C189.649 85.6598 190.06 85.9204 190.37 86.2823C190.68 86.6441 190.874 87.0906 190.927 87.564C190.98 88.0374 190.89 88.5158 190.668 88.9375L188.378 93.2098C191.265 93.8534 194.266 93.7896 197.123 93.0237C197.598 92.8992 198.1 92.9247 198.559 93.0965C199.019 93.2684 199.414 93.5782 199.691 93.9836C199.968 94.389 200.112 94.87 200.104 95.3607C200.097 95.8514 199.938 96.3278 199.649 96.7244C192.095 107.095 179.476 113.792 166.598 113.713C157.445 113.657 148.198 110.503 139.29 112.608C135.844 113.422 132.624 114.997 129.866 117.218C127.109 119.439 124.883 122.25 123.353 125.443C121.823 128.636 121.027 132.132 121.024 135.673C121.021 139.214 121.811 142.71 123.336 145.906C120.6 142.913 115.31 143.622 112.51 146.556C109.711 149.491 108.987 153.871 109.269 157.917C109.7 164.105 112.124 169.936 114.68 175.611C93.2515 174.936 72.9834 159.904 66.1612 139.573C59.3103 119.157 66.4902 94.8165 83.3249 81.387Z" fill="#2F2E41"/>
<path opacity="0.2" d="M49.5815 280.749L63.7104 357.621L72.1881 358.359L49.5815 280.749Z" fill="black"/>
<path opacity="0.2" d="M205.214 274.951L191.085 357.566L182.608 358.359L205.214 274.951Z" fill="black"/>
<path d="M95.3757 55.5156C92.6667 56.6468 89.84 55.4071 88.6545 52.5681C87.4509 49.6856 88.575 46.7596 91.3275 45.6103C94.0802 44.4608 96.8566 45.7036 98.0796 48.6325C99.2843 51.5175 98.1724 54.3479 95.3757 55.5156ZM90.1864 39.9367L88.0324 40.8361C87.4943 41.0581 86.8925 41.0701 86.346 40.8696C85.7995 40.6692 85.3481 40.2709 85.0812 39.7536L84.9747 39.5453C82.657 35.3654 82.3916 30.2855 84.1901 24.4544C85.8562 19.2236 86.5482 15.5449 85.1565 12.2121C83.5475 8.35878 80.1117 7.15172 75.7302 8.90028C74.0309 9.60986 73.4902 9.59855 72.1529 10.9252C71.862 11.2172 71.5152 11.4478 71.1333 11.6029C70.7514 11.7581 70.3422 11.8348 69.93 11.8285C69.5316 11.8238 69.1381 11.7389 68.7732 11.5789C68.4082 11.4188 68.0792 11.187 67.8058 10.8971C67.2791 10.3384 66.984 9.60065 66.9801 8.83283C66.9763 8.06502 67.2639 7.32433 67.785 6.76036C70.0327 4.40738 72.7438 2.54588 75.7472 1.29331C85.1611 -2.63759 89.9001 3.16583 92.0687 8.35934C94.1898 13.4392 92.9967 18.1524 91.0795 24.2566C89.4728 29.3287 89.5664 33.0871 91.3915 36.8241C91.5232 37.1067 91.5965 37.4129 91.607 37.7245C91.6174 38.036 91.5648 38.3465 91.4522 38.6372C91.3397 38.9279 91.1696 39.1928 90.952 39.4162C90.7345 39.6395 90.4741 39.8165 90.1864 39.9367Z" fill="#7ABA34"/>
<path d="M329.224 78.8261H283.473C283.328 78.8271 283.184 78.7993 283.049 78.7444C282.915 78.6894 282.792 78.6084 282.689 78.506C282.586 78.4036 282.504 78.2818 282.448 78.1476C282.393 78.0134 282.364 77.8695 282.364 77.7241C282.364 77.5788 282.393 77.4348 282.448 77.3007C282.504 77.1665 282.586 77.0447 282.689 76.9422C282.792 76.8398 282.915 76.7588 283.049 76.7039C283.184 76.6489 283.328 76.6211 283.473 76.6221H329.224C329.515 76.6241 329.794 76.7411 329.999 76.9475C330.204 77.154 330.319 77.4331 330.319 77.7241C330.319 78.0151 330.204 78.2942 329.999 78.5007C329.794 78.7071 329.515 78.8241 329.224 78.8261Z" fill="#7ABA34"/>
<path d="M387.262 79.1934H341.511C341.366 79.1944 341.222 79.1666 341.087 79.1117C340.953 79.0567 340.83 78.9757 340.727 78.8733C340.624 78.7709 340.542 78.649 340.486 78.5148C340.431 78.3807 340.402 78.2368 340.402 78.0914C340.402 77.9461 340.431 77.8021 340.486 77.6679C340.542 77.5337 340.624 77.4119 340.727 77.3095C340.83 77.2071 340.953 77.1261 341.087 77.0711C341.222 77.0162 341.366 76.9884 341.511 76.9894H387.262C387.408 76.9884 387.552 77.0162 387.686 77.0711C387.821 77.1261 387.943 77.2071 388.046 77.3095C388.15 77.4119 388.231 77.5337 388.287 77.6679C388.343 77.8021 388.372 77.9461 388.372 78.0914C388.372 78.2368 388.343 78.3807 388.287 78.5148C388.231 78.649 388.15 78.7709 388.046 78.8733C387.943 78.9757 387.821 79.0567 387.686 79.1117C387.552 79.1666 387.408 79.1944 387.262 79.1934Z" fill="#7ABA34"/>
<path d="M445.3 79.5607H399.549C399.258 79.5587 398.98 79.4418 398.775 79.2353C398.57 79.0289 398.455 78.7497 398.455 78.4587C398.455 78.1678 398.57 77.8886 398.775 77.6821C398.98 77.4757 399.258 77.3587 399.549 77.3567H445.3C445.446 77.3558 445.59 77.3835 445.724 77.4385C445.859 77.4934 445.981 77.5744 446.084 77.6768C446.188 77.7793 446.269 77.9011 446.325 78.0353C446.381 78.1695 446.41 78.3134 446.41 78.4587C446.41 78.6041 446.381 78.748 446.325 78.8822C446.269 79.0164 446.188 79.1382 446.084 79.2406C445.981 79.343 445.859 79.4241 445.724 79.479C445.59 79.5339 445.446 79.5617 445.3 79.5607Z" fill="#7ABA34"/>
<path d="M503.338 79.928H457.587C457.296 79.9261 457.018 79.8091 456.813 79.6026C456.608 79.3962 456.493 79.117 456.493 78.826C456.493 78.5351 456.608 78.2559 456.813 78.0495C457.018 77.843 457.296 77.726 457.587 77.7241H503.338C503.629 77.726 503.908 77.843 504.113 78.0495C504.318 78.2559 504.433 78.5351 504.433 78.826C504.433 79.117 504.318 79.3962 504.113 79.6026C503.908 79.8091 503.629 79.9261 503.338 79.928Z" fill="#7ABA34"/>
<path d="M306.248 68.6843C310.944 68.6843 314.751 64.8773 314.751 60.1811C314.751 55.485 310.944 51.678 306.248 51.678C301.552 51.678 297.745 55.485 297.745 60.1811C297.745 64.8773 301.552 68.6843 306.248 68.6843Z" fill="#7ABA34"/>
<path d="M364.637 68.6843C369.333 68.6843 373.14 64.8773 373.14 60.1811C373.14 55.485 369.333 51.678 364.637 51.678C359.941 51.678 356.134 55.485 356.134 60.1811C356.134 64.8773 359.941 68.6843 364.637 68.6843Z" fill="#7ABA34"/>
<path d="M423.025 68.6843C427.721 68.6843 431.528 64.8773 431.528 60.1811C431.528 55.485 427.721 51.678 423.025 51.678C418.329 51.678 414.522 55.485 414.522 60.1811C414.522 64.8773 418.329 68.6843 423.025 68.6843Z" fill="#7ABA34"/>
<path d="M481.414 68.6843C486.11 68.6843 489.917 64.8773 489.917 60.1811C489.917 55.485 486.11 51.678 481.414 51.678C476.718 51.678 472.911 55.485 472.911 60.1811C472.911 64.8773 476.718 68.6843 481.414 68.6843Z" fill="#7ABA34"/>
</g>
<defs>
<clipPath id="clip0_2_849">
<rect width="539.235" height="358.36" fill="white"/>
</clipPath>
</defs>
</svg>
